<svg xmlns="http://www.w3.org/2000/svg" xmlns:xlink="http://www.w3.org/1999/xlink" width="75" height="69" viewBox="0 0 75 69">
  <defs>
    <clipPath id="clip-path">
      <rect id="Rectangle_1" data-name="Rectangle 1" width="75" height="69" transform="translate(34 30)" fill="#fff" stroke="#707070" stroke-width="1"/>
    </clipPath>
  </defs>
  <g id="Mask_Group_1" data-name="Mask Group 1" transform="translate(-34 -30)" clip-path="url(#clip-path)">
    <g id="Recycling_symbol" transform="translate(36.522 30)">
      <g id="Group_3" data-name="Group 3">
        <g id="Group_2" data-name="Group 2">
          <g id="Group_1" data-name="Group 1">
            <path id="Path_2" data-name="Path 2" d="M11.189,50.023A11.278,11.278,0,0,0,9.84,54.682a7.919,7.919,0,0,0,.074,1.2L.524,39.733A4.189,4.189,0,0,1,0,37.78a4.5,4.5,0,0,1,.524-2.027l4.507-7.886L0,25.015l16.374-.3,7.96,14.344-5.105-2.929ZM18.4,4.511A7.334,7.334,0,0,1,25.009.678a7.976,7.976,0,0,1,7.212,4.354l2.554,4.281L25.91,24.638,11.566,16.3Zm1.049,58.5a7.853,7.853,0,0,1-7.81-7.81A10.526,10.526,0,0,1,12.918,50.7l2.4-4.281h17.8v16.6H19.449ZM33.723,4.057A9.207,9.207,0,0,0,29.292,0H47.767a4.026,4.026,0,0,1,3.683,1.956l4.581,7.81,4.956-2.931L53.022,21.108l-16.294-.23,5.032-2.852ZM62.191,46.568a9.1,9.1,0,0,0,5.706-1.8L58.582,60.988a4.16,4.16,0,0,1-3.677,2.027H46.114V68.8L37.7,54.755l8.411-14.047v5.86H62.191ZM69.4,33.048a7.718,7.718,0,0,1,1.055,3.83,8.351,8.351,0,0,1-4.13,6.908,9.441,9.441,0,0,1-4.281.981H57.079L48.22,29.443l14.345-8.187Z" fill="#fff"/>
          </g>
        </g>
      </g>
    </g>
  </g>
</svg>
